<svg width="11" height="17" viewBox="0 0 11 17" fill="none" xmlns="http://www.w3.org/2000/svg">
<path d="M5.49355 16.2188C4.59808 16.2188 3.79984 16.0497 3.09884 15.7116C2.40236 15.3734 1.84835 14.9035 1.43679 14.3018C1.02976 13.6952 0.808153 12.9916 0.771973 12.191H2.48151C2.51769 12.6833 2.67146 13.1084 2.94281 13.4664C3.21417 13.8195 3.56919 14.093 4.00788 14.2869C4.44657 14.4808 4.93275 14.5778 5.46641 14.5778C6.06339 14.5778 6.59254 14.4634 7.05384 14.2347C7.51514 14.006 7.87695 13.6877 8.13926 13.28C8.40157 12.8722 8.53272 12.3998 8.53272 11.8628C8.53272 11.3009 8.40609 10.8061 8.15283 10.3785C7.89956 9.94588 7.52871 9.60775 7.04027 9.36409C6.55183 9.12044 5.95485 8.99861 5.24933 8.99861H4.13677V7.35767H5.24933C5.80108 7.35767 6.285 7.24827 6.70108 7.02948C7.12168 6.81069 7.44956 6.50239 7.68474 6.10459C7.92444 5.70678 8.04428 5.23937 8.04428 4.70233C8.04428 4.18519 7.94026 3.73517 7.73223 3.35228C7.52419 2.9694 7.23022 2.67104 6.85032 2.45723C6.47495 2.24341 6.03174 2.1365 5.52068 2.1365C5.04129 2.1365 4.58903 2.23346 4.16391 2.42739C3.74331 2.61635 3.39959 2.89232 3.13276 3.25532C2.86593 3.61334 2.72121 4.04595 2.69859 4.55315H1.07046C1.0976 3.75257 1.31694 3.05144 1.7285 2.44977C2.14005 1.84312 2.67824 1.37072 3.34306 1.03259C4.0124 0.694457 4.74732 0.525391 5.54782 0.525391C6.40711 0.525391 7.14429 0.716834 7.75936 1.09972C8.37443 1.47763 8.84704 1.97737 9.17719 2.59894C9.50734 3.22051 9.67241 3.89181 9.67241 4.61283C9.67241 5.47308 9.46664 6.20653 9.05508 6.81318C8.64805 7.41983 8.09403 7.84001 7.39303 8.07372V8.19306C8.27041 8.35218 8.95558 8.76241 9.44855 9.42376C9.94151 10.0801 10.188 10.8932 10.188 11.8628C10.188 12.6932 9.98221 13.4391 9.57066 14.1004C9.16362 14.7568 8.60735 15.274 7.90182 15.6519C7.1963 16.0298 6.39354 16.2188 5.49355 16.2188Z" fill="white"/>
</svg>
