<svg width="47" height="40" viewBox="0 0 47 40" fill="none" xmlns="http://www.w3.org/2000/svg">
<path d="M27.3983 29.879L18.0923 20.7959C17.8693 20.5729 17.752 20.303 17.752 20.0096C17.752 19.7045 17.881 19.4111 18.104 19.2234L27.3983 10.1286C27.5978 9.92906 27.856 9.81171 28.1611 9.81171C28.7713 9.81171 29.229 10.2811 29.229 10.8913C29.229 11.173 29.1117 11.4546 28.9239 11.6541L20.3806 20.0096L28.9239 28.3651C29.1117 28.5646 29.229 28.8345 29.229 29.1279C29.229 29.7381 28.7713 30.1958 28.1611 30.1958C27.856 30.1958 27.5978 30.0784 27.3983 29.879Z" fill="#737373"/>
</svg>
