<svg width="32" height="28" viewBox="0 0 32 28" fill="none" xmlns="http://www.w3.org/2000/svg">
<path d="M18.8228 20.9878L12.2402 14.563C12.0825 14.4053 11.9995 14.2144 11.9995 14.0068C11.9995 13.791 12.0908 13.5835 12.2485 13.4507L18.8228 7.01758C18.9639 6.87646 19.1465 6.79346 19.3623 6.79346C19.7939 6.79346 20.1177 7.12549 20.1177 7.55713C20.1177 7.75635 20.0347 7.95557 19.9019 8.09668L13.8589 14.0068L19.9019 19.917C20.0347 20.0581 20.1177 20.249 20.1177 20.4565C20.1177 20.8882 19.7939 21.2119 19.3623 21.2119C19.1465 21.2119 18.9639 21.1289 18.8228 20.9878Z" fill="#737373"/>
</svg>
