<svg width="46" height="41" viewBox="0 0 46 41" fill="none" xmlns="http://www.w3.org/2000/svg">
<path d="M13.7212 27.644H15.728V29.4395C15.728 31.857 16.9484 33.0774 19.4128 33.0774H31.195C33.6359 33.0774 34.8681 31.857 34.8681 29.4395V17.5635C34.8681 15.146 33.6359 13.9255 31.195 13.9255H29.1765V12.13C29.1765 9.71259 27.9443 8.49213 25.5034 8.49213H13.7212C11.2568 8.49213 10.0364 9.71259 10.0364 12.13V24.0061C10.0364 26.4236 11.2568 27.644 13.7212 27.644ZM13.7447 25.7547C12.5712 25.7547 11.9257 25.1209 11.9257 23.9005V12.2357C11.9257 11.0152 12.5712 10.3815 13.7447 10.3815H25.4682C26.63 10.3815 27.2872 11.0152 27.2872 12.2357V13.9255H19.4128C16.9484 13.9255 15.728 15.1343 15.728 17.5635V25.7547H13.7447ZM19.4363 31.1881C18.2745 31.1881 17.6173 30.5544 17.6173 29.3339V17.6691C17.6173 16.4486 18.2745 15.8149 19.4363 15.8149H31.1598C32.3216 15.8149 32.9788 16.4486 32.9788 17.6691V29.3339C32.9788 30.5544 32.3216 31.1881 31.1598 31.1881H19.4363Z" fill="#737373"/>
</svg>
