<svg width="48" height="41" viewBox="0 0 48 41" fill="none" xmlns="http://www.w3.org/2000/svg">
<path d="M13.8792 31.587H34.1811C36.6455 31.587 37.866 30.3666 37.866 27.9491V13.6204C37.866 11.2029 36.6455 9.98248 34.1811 9.98248H13.8792C11.4265 9.98248 10.1943 11.1912 10.1943 13.6204V27.9491C10.1943 30.3783 11.4265 31.587 13.8792 31.587ZM13.9027 29.6977C12.7291 29.6977 12.0837 29.0757 12.0837 27.8552V13.7143C12.0837 12.4938 12.7291 11.8719 13.9027 11.8719H19.1366V29.6977H13.9027ZM34.1577 11.8719C35.3195 11.8719 35.9766 12.4938 35.9766 13.7143V27.8552C35.9766 29.0757 35.3195 29.6977 34.1577 29.6977H20.979V11.8719H34.1577ZM16.8717 16.2256C17.2355 16.2256 17.5406 15.9088 17.5406 15.5685C17.5406 15.2164 17.2355 14.9113 16.8717 14.9113H14.3603C14.0083 14.9113 13.6914 15.2164 13.6914 15.5685C13.6914 15.9088 14.0083 16.2256 14.3603 16.2256H16.8717ZM16.8717 19.265C17.2355 19.265 17.5406 18.9482 17.5406 18.5961C17.5406 18.2441 17.2355 17.9507 16.8717 17.9507H14.3603C14.0083 17.9507 13.6914 18.2441 13.6914 18.5961C13.6914 18.9482 14.0083 19.265 14.3603 19.265H16.8717ZM16.8717 22.2927C17.2355 22.2927 17.5406 21.9994 17.5406 21.6473C17.5406 21.2952 17.2355 20.9901 16.8717 20.9901H14.3603C14.0083 20.9901 13.6914 21.2952 13.6914 21.6473C13.6914 21.9994 14.0083 22.2927 14.3603 22.2927H16.8717Z" fill="#737373"/>
</svg>
