<svg width="46" height="41" viewBox="0 0 46 41" fill="none" xmlns="http://www.w3.org/2000/svg">
<path d="M23.1848 23.9592C23.6894 23.9592 24.1119 23.5367 24.1119 23.0438V10.9917L24.0415 9.23145L24.8395 10.0647L26.6115 11.9658C26.7758 12.1535 27.0222 12.2474 27.2452 12.2474C27.7381 12.2474 28.1019 11.8954 28.1019 11.4142C28.1019 11.1678 28.008 10.98 27.832 10.804L23.8654 6.97829C23.6307 6.74358 23.4195 6.66144 23.1848 6.66144C22.9501 6.66144 22.7389 6.74358 22.5042 6.97829L18.5376 10.804C18.3616 10.98 18.256 11.1678 18.256 11.4142C18.256 11.8954 18.6198 12.2474 19.1009 12.2474C19.3356 12.2474 19.5821 12.1535 19.7464 11.9658L21.5301 10.0647L22.3281 9.23145L22.246 10.9917V23.0438C22.246 23.5367 22.6802 23.9592 23.1848 23.9592ZM16.4488 33.1479H29.9091C32.3617 33.1479 33.5939 31.9274 33.5939 29.5099V17.7982C33.5939 15.3807 32.3617 14.1602 29.9091 14.1602H26.635V16.0496H29.8739C31.0357 16.0496 31.7046 16.6833 31.7046 17.9038V29.4043C31.7046 30.6248 31.0357 31.2585 29.8739 31.2585H16.4722C15.2987 31.2585 14.6533 30.6248 14.6533 29.4043V17.9038C14.6533 16.6833 15.2987 16.0496 16.4722 16.0496H19.7229V14.1602H16.4488C13.9961 14.1602 12.7639 15.3807 12.7639 17.7982V29.5099C12.7639 31.9274 13.9961 33.1479 16.4488 33.1479Z" fill="#737373"/>
</svg>
