<svg width="46" height="40" viewBox="0 0 46 40" fill="none" xmlns="http://www.w3.org/2000/svg">
<path d="M18.0596 30.2075C18.3647 30.2075 18.6229 30.0902 18.8224 29.8907L28.1284 20.7959C28.3514 20.5729 28.4688 20.303 28.4688 20.0096C28.4688 19.7045 28.3514 19.4229 28.1284 19.2234L18.8341 10.1403C18.6229 9.92906 18.3647 9.81171 18.0596 9.81171C17.4494 9.81171 16.9917 10.2811 16.9917 10.8913C16.9917 11.173 17.1091 11.4546 17.2968 11.6541L25.8401 20.0096L17.2968 28.3651C17.1091 28.5646 16.9917 28.8345 16.9917 29.1279C16.9917 29.7381 17.4494 30.2075 18.0596 30.2075Z" fill="#BFBFBF"/>
</svg>
