<svg width="32" height="28" viewBox="0 0 32 28" fill="none" xmlns="http://www.w3.org/2000/svg">
<path d="M16.4668 22.4736C21.0986 22.4736 24.9336 18.6304 24.9336 14.0068C24.9336 9.375 21.0903 5.54004 16.4585 5.54004C11.835 5.54004 8 9.375 8 14.0068C8 18.6304 11.8433 22.4736 16.4668 22.4736ZM16.4668 21.0625C12.5488 21.0625 9.41943 17.9248 9.41943 14.0068C9.41943 10.0889 12.5405 6.95117 16.4585 6.95117C20.3765 6.95117 23.5142 10.0889 23.5225 14.0068C23.5308 17.9248 20.3848 21.0625 16.4668 21.0625ZM16.4668 9.78174C16.1099 9.78174 15.8442 10.0391 15.8442 10.4043V14.5547L15.9106 16.3062L15.0806 15.3101L14.0928 14.314C13.9766 14.2061 13.8271 14.1313 13.6528 14.1313C13.3125 14.1313 13.0552 14.397 13.0552 14.729C13.0552 14.9033 13.105 15.0527 13.2129 15.1606L15.9854 17.9248C16.1514 18.0908 16.2925 18.1572 16.4668 18.1572C16.6494 18.1572 16.7988 18.0825 16.9565 17.9248L19.7207 15.1606C19.8286 15.0527 19.895 14.9033 19.895 14.729C19.895 14.397 19.6294 14.1313 19.2891 14.1313C19.1064 14.1313 18.957 14.1978 18.8491 14.314L17.8696 15.3101L17.0229 16.3145L17.0894 14.5547V10.4043C17.0894 10.0391 16.832 9.78174 16.4668 9.78174Z" fill="#737373"/>
</svg>
