<svg width="47" height="40" viewBox="0 0 47 40" fill="none" xmlns="http://www.w3.org/2000/svg">
<path d="M24.2019 32.179C24.3897 32.179 24.6948 32.1086 24.9882 31.9443C31.6655 28.2008 33.9539 26.6165 33.9539 22.3332V13.3557C33.9539 12.1235 33.4258 11.7363 32.4283 11.3138C31.0436 10.7388 26.5724 9.13105 25.1877 8.64991C24.8708 8.54429 24.5305 8.47388 24.2019 8.47388C23.8733 8.47388 23.533 8.56776 23.2279 8.64991C21.8431 9.0489 17.3603 10.7505 15.9755 11.3138C14.9898 11.7245 14.45 12.1235 14.45 13.3557V22.3332C14.45 26.6165 16.7501 28.1891 23.4157 31.9443C23.7208 32.1086 24.0142 32.179 24.2019 32.179ZM24.6713 10.4689C26.4434 11.173 29.8818 12.4169 31.7007 13.0389C32.0176 13.1562 32.088 13.3205 32.088 13.7195V21.899C32.088 25.5252 30.3512 26.4757 24.9295 29.7733C24.5892 29.9846 24.4014 30.0432 24.2137 30.055V10.3632C24.331 10.3632 24.4836 10.3985 24.6713 10.4689Z" fill="#737373"/>
</svg>
