<svg width="32" height="28" viewBox="0 0 32 28" fill="none" xmlns="http://www.w3.org/2000/svg">
<path d="M15.8477 21.0044C16.2544 21.0044 16.5947 20.6807 16.5947 20.2822V14.7622H21.957C22.3555 14.7622 22.6958 14.4219 22.6958 14.0151C22.6958 13.6084 22.3555 13.2764 21.957 13.2764H16.5947V7.74805C16.5947 7.34961 16.2544 7.02588 15.8477 7.02588C15.4409 7.02588 15.1089 7.34961 15.1089 7.74805V13.2764H9.73828C9.33984 13.2764 8.99951 13.6084 8.99951 14.0151C8.99951 14.4219 9.33984 14.7622 9.73828 14.7622H15.1089V20.2822C15.1089 20.6807 15.4409 21.0044 15.8477 21.0044Z" fill="#737373"/>
</svg>
