<svg width="32" height="28" viewBox="0 0 32 28" fill="none" xmlns="http://www.w3.org/2000/svg">
<path d="M12.7549 21.2202C12.9707 21.2202 13.1533 21.1372 13.2944 20.9961L19.877 14.563C20.0347 14.4053 20.1177 14.2144 20.1177 14.0068C20.1177 13.791 20.0347 13.5918 19.877 13.4507L13.3027 7.02588C13.1533 6.87646 12.9707 6.79346 12.7549 6.79346C12.3232 6.79346 11.9995 7.12549 11.9995 7.55713C11.9995 7.75635 12.0825 7.95557 12.2153 8.09668L18.2583 14.0068L12.2153 19.917C12.0825 20.0581 11.9995 20.249 11.9995 20.4565C11.9995 20.8882 12.3232 21.2202 12.7549 21.2202Z" fill="#BFBFBF"/>
</svg>
