<svg width="32" height="28" viewBox="0 0 32 28" fill="none" xmlns="http://www.w3.org/2000/svg">
<path d="M16.3711 16.2646C16.728 16.2646 17.0269 15.9658 17.0269 15.6172V7.09229L16.9771 5.84717L17.5415 6.43652L18.7949 7.78125C18.9111 7.91406 19.0854 7.98047 19.2432 7.98047C19.5918 7.98047 19.8491 7.73145 19.8491 7.39111C19.8491 7.2168 19.7827 7.08398 19.6582 6.95947L16.8525 4.25342C16.6865 4.0874 16.5371 4.0293 16.3711 4.0293C16.2051 4.0293 16.0557 4.0874 15.8896 4.25342L13.084 6.95947C12.9595 7.08398 12.8848 7.2168 12.8848 7.39111C12.8848 7.73145 13.1421 7.98047 13.4824 7.98047C13.6484 7.98047 13.8228 7.91406 13.939 7.78125L15.2007 6.43652L15.7651 5.84717L15.707 7.09229V15.6172C15.707 15.9658 16.0142 16.2646 16.3711 16.2646ZM11.6064 22.7642H21.1274C22.8623 22.7642 23.7339 21.9009 23.7339 20.1909V11.9067C23.7339 10.1968 22.8623 9.3335 21.1274 9.3335H18.8115V10.6699H21.1025C21.9243 10.6699 22.3975 11.1182 22.3975 11.9814V20.1162C22.3975 20.9795 21.9243 21.4277 21.1025 21.4277H11.623C10.793 21.4277 10.3364 20.9795 10.3364 20.1162V11.9814C10.3364 11.1182 10.793 10.6699 11.623 10.6699H13.9224V9.3335H11.6064C9.87158 9.3335 9 10.1968 9 11.9067V20.1909C9 21.9009 9.87158 22.7642 11.6064 22.7642Z" fill="#737373"/>
</svg>
