<svg width="46" height="41" viewBox="0 0 46 41" fill="none" xmlns="http://www.w3.org/2000/svg">
<path d="M23.77 32.7371C30.3182 32.7371 35.7399 27.3037 35.7399 20.7672C35.7399 14.2189 30.3065 8.79724 23.7582 8.79724C17.2217 8.79724 11.8 14.2189 11.8 20.7672C11.8 27.3037 17.2335 32.7371 23.77 32.7371ZM23.77 30.7421C18.231 30.7421 13.8068 26.3062 13.8068 20.7672C13.8068 15.2281 18.2192 10.7922 23.7582 10.7922C29.2973 10.7922 33.7332 15.2281 33.7449 20.7672C33.7567 26.3062 29.309 30.7421 23.77 30.7421ZM23.77 14.7939C23.2654 14.7939 22.8898 15.1577 22.8898 15.6741V21.5417L22.9837 24.0178L21.8102 22.6096L20.4137 21.2014C20.2494 21.0488 20.0382 20.9432 19.7917 20.9432C19.3106 20.9432 18.9468 21.3187 18.9468 21.7881C18.9468 22.0346 19.0172 22.2458 19.1698 22.3984L23.0893 26.3062C23.324 26.5409 23.5235 26.6348 23.77 26.6348C24.0282 26.6348 24.2394 26.5292 24.4624 26.3062L28.3702 22.3984C28.5228 22.2458 28.6166 22.0346 28.6166 21.7881C28.6166 21.3187 28.2411 20.9432 27.76 20.9432C27.5018 20.9432 27.2906 21.0371 27.138 21.2014L25.7532 22.6096L24.5562 24.0296L24.6501 21.5417V15.6741C24.6501 15.1577 24.2863 14.7939 23.77 14.7939Z" fill="#737373"/>
</svg>
