<svg width="46" height="41" viewBox="0 0 46 41" fill="none" xmlns="http://www.w3.org/2000/svg">
<path d="M22.9948 30.66C23.5698 30.66 24.051 30.2023 24.051 29.639V21.8351H31.6319C32.1952 21.8351 32.6764 21.3539 32.6764 20.7789C32.6764 20.2039 32.1952 19.7345 31.6319 19.7345H24.051V11.9188C24.051 11.3555 23.5698 10.8978 22.9948 10.8978C22.4198 10.8978 21.9504 11.3555 21.9504 11.9188V19.7345H14.3577C13.7944 19.7345 13.3132 20.2039 13.3132 20.7789C13.3132 21.3539 13.7944 21.8351 14.3577 21.8351H21.9504V29.639C21.9504 30.2023 22.4198 30.66 22.9948 30.66Z" fill="#737373"/>
</svg>
