<svg width="32" height="28" viewBox="0 0 32 28" fill="none" xmlns="http://www.w3.org/2000/svg">
<path d="M9.60645 18.8711H11.0259V20.1411C11.0259 21.8511 11.8892 22.7144 13.6323 22.7144H21.9663C23.6929 22.7144 24.5645 21.8511 24.5645 20.1411V11.7407C24.5645 10.0308 23.6929 9.16748 21.9663 9.16748H20.5386V7.89746C20.5386 6.1875 19.667 5.32422 17.9404 5.32422H9.60645C7.86328 5.32422 7 6.1875 7 7.89746V16.2979C7 18.0078 7.86328 18.8711 9.60645 18.8711ZM9.62305 17.5347C8.79297 17.5347 8.33643 17.0864 8.33643 16.2231V7.97217C8.33643 7.10889 8.79297 6.66064 9.62305 6.66064H17.9155C18.7373 6.66064 19.2021 7.10889 19.2021 7.97217V9.16748H13.6323C11.8892 9.16748 11.0259 10.0225 11.0259 11.7407V17.5347H9.62305ZM13.6489 21.3779C12.8271 21.3779 12.3623 20.9297 12.3623 20.0664V11.8154C12.3623 10.9521 12.8271 10.5039 13.6489 10.5039H21.9414C22.7632 10.5039 23.228 10.9521 23.228 11.8154V20.0664C23.228 20.9297 22.7632 21.3779 21.9414 21.3779H13.6489Z" fill="#737373"/>
</svg>
