<svg width="39" height="39" viewBox="0 0 39 39" fill="none" xmlns="http://www.w3.org/2000/svg">
<path d="M13.5691 29.8205C13.5691 30.4448 13.3211 31.0436 12.8796 31.485C12.4382 31.9265 11.8394 32.1745 11.2151 32.1745C10.5908 32.1745 9.99205 31.9265 9.55058 31.485C9.10912 31.0436 8.86111 30.4448 8.86111 29.8205M13.5691 29.8205C13.5691 29.1962 13.3211 28.5974 12.8796 28.156C12.4382 27.7145 11.8394 27.4665 11.2151 27.4665C10.5908 27.4665 9.99205 27.7145 9.55058 28.156C9.10912 28.5974 8.86111 29.1962 8.86111 29.8205M13.5691 29.8205H22.9851M8.86111 29.8205H5.91861C5.45037 29.8205 5.00131 29.6345 4.67021 29.3034C4.33911 28.9723 4.15311 28.5233 4.15311 28.055V22.7585M22.9851 29.8205H26.5161M22.9851 29.8205V22.7585M4.15311 22.7585V10.7766C4.15061 10.3469 4.30763 9.93151 4.59376 9.61088C4.87989 9.29025 5.27479 9.08717 5.70204 9.04094C10.9327 8.49799 16.2055 8.49799 21.4362 9.04094C22.3229 9.13196 22.9851 9.88524 22.9851 10.7766V12.28M4.15311 22.7585H22.9851M31.2242 29.8205C31.2242 30.4448 30.9761 31.0436 30.5347 31.485C30.0932 31.9265 29.4945 32.1745 28.8701 32.1745C28.2458 32.1745 27.6471 31.9265 27.2056 31.485C26.7642 31.0436 26.5161 30.4448 26.5161 29.8205M31.2242 29.8205C31.2242 29.1962 30.9761 28.5974 30.5347 28.156C30.0932 27.7145 29.4945 27.4665 28.8701 27.4665C28.2458 27.4665 27.6471 27.7145 27.2056 28.156C26.7642 28.5974 26.5161 29.1962 26.5161 29.8205M31.2242 29.8205H32.9897C33.9642 29.8205 34.7614 29.0296 34.7002 28.0566C34.3849 22.8741 32.6395 17.8803 29.658 13.6297C29.374 13.2315 29.0032 12.9031 28.5736 12.6693C28.1441 12.4355 27.667 12.3024 27.1784 12.28H22.9851M22.9851 12.28V22.7585" stroke="#D75951" stroke-width="2.354" stroke-linecap="round" stroke-linejoin="round"/>
</svg>
