<svg width="32" height="33" viewBox="0 0 32 33" fill="none" xmlns="http://www.w3.org/2000/svg">
<path d="M19.6833 23.2663C22.1199 22.9778 24.514 22.4027 26.8159 21.5531C24.8665 19.3937 23.7893 16.5868 23.7936 13.6776V12.7622V12.6968C23.7936 10.6157 22.9669 8.61988 21.4954 7.14834C20.0238 5.6768 18.028 4.8501 15.9469 4.8501C13.8659 4.8501 11.87 5.6768 10.3985 7.14834C8.92695 8.61988 8.10025 10.6157 8.10025 12.6968V13.6776C8.10419 16.5869 7.02654 19.3939 5.07666 21.5531C7.34304 22.39 9.73236 22.972 12.2106 23.2663M19.6833 23.2663C17.2011 23.5607 14.6928 23.5607 12.2106 23.2663M19.6833 23.2663C19.8717 23.8546 19.9186 24.4791 19.82 25.0889C19.7215 25.6988 19.4803 26.2768 19.1162 26.7758C18.752 27.2748 18.2752 27.6808 17.7245 27.9607C17.1737 28.2406 16.5647 28.3864 15.9469 28.3864C15.3292 28.3864 14.7201 28.2406 14.1694 27.9607C13.6187 27.6808 13.1418 27.2748 12.7777 26.7758C12.4135 26.2768 12.1724 25.6988 12.0738 25.0889C11.9753 24.4791 12.0221 23.8546 12.2106 23.2663" stroke="#101F37" stroke-width="2.354" stroke-linecap="round" stroke-linejoin="round"/>
</svg>
