<svg width="33" height="33" viewBox="0 0 33 33" fill="none" xmlns="http://www.w3.org/2000/svg">
<path d="M7.81885 8.21122C7.81885 7.09176 9.01808 6.38295 9.99892 6.92175L25.0907 15.2235C25.3214 15.3505 25.5137 15.5371 25.6477 15.7638C25.7817 15.9905 25.8523 16.249 25.8523 16.5124C25.8523 16.7757 25.7817 17.0342 25.6477 17.2609C25.5137 17.4876 25.3214 17.6742 25.0907 17.8012L9.99892 26.1017C9.77497 26.2248 9.52282 26.2874 9.26729 26.2835C9.01176 26.2795 8.76168 26.2091 8.54166 26.0791C8.32164 25.9491 8.13928 25.764 8.01253 25.5421C7.88579 25.3202 7.81904 25.069 7.81885 24.8135V8.21122Z" stroke="#3A4980" stroke-width="2.354" stroke-linecap="round" stroke-linejoin="round"/>
</svg>
