<svg width="34" height="34" viewBox="0 0 34 34" fill="none" xmlns="http://www.w3.org/2000/svg">
<path d="M22.5542 15.2815V9.10226C22.5542 7.73656 22.0117 6.4268 21.046 5.4611C20.0803 4.4954 18.7705 3.95288 17.4048 3.95288C16.0391 3.95288 14.7294 4.4954 13.7637 5.4611C12.798 6.4268 12.2555 7.73656 12.2555 9.10226V15.2815M27.8492 12.5448L29.5835 29.0228C29.6796 29.936 28.9655 30.7297 28.0469 30.7297H6.76278C6.5461 30.7299 6.3318 30.6846 6.1338 30.5966C5.93579 30.5086 5.75851 30.3799 5.61347 30.219C5.46843 30.058 5.35887 29.8683 5.29192 29.6622C5.22496 29.4562 5.2021 29.2383 5.22483 29.0228L6.96052 12.5448C7.00055 12.1652 7.17971 11.8139 7.46344 11.5585C7.74717 11.3032 8.11539 11.1619 8.49709 11.162H26.3126C27.1035 11.162 27.7668 11.7593 27.8492 12.5448ZM12.7704 15.2815C12.7704 15.4181 12.7161 15.5491 12.6196 15.6456C12.523 15.7422 12.392 15.7965 12.2555 15.7965C12.1189 15.7965 11.9879 15.7422 11.8913 15.6456C11.7948 15.5491 11.7405 15.4181 11.7405 15.2815C11.7405 15.145 11.7948 15.014 11.8913 14.9174C11.9879 14.8208 12.1189 14.7666 12.2555 14.7666C12.392 14.7666 12.523 14.8208 12.6196 14.9174C12.7161 15.014 12.7704 15.145 12.7704 15.2815ZM23.0692 15.2815C23.0692 15.4181 23.0149 15.5491 22.9183 15.6456C22.8218 15.7422 22.6908 15.7965 22.5542 15.7965C22.4177 15.7965 22.2867 15.7422 22.1901 15.6456C22.0935 15.5491 22.0393 15.4181 22.0393 15.2815C22.0393 15.145 22.0935 15.014 22.1901 14.9174C22.2867 14.8208 22.4177 14.7666 22.5542 14.7666C22.6908 14.7666 22.8218 14.8208 22.9183 14.9174C23.0149 15.014 23.0692 15.145 23.0692 15.2815Z" stroke="white" stroke-width="2.354" stroke-linecap="round" stroke-linejoin="round"/>
</svg>
