<svg width="33" height="33" viewBox="0 0 33 33" fill="none" xmlns="http://www.w3.org/2000/svg">
<path d="M10.3633 15.1311C10.0466 14.5613 9.54969 14.1128 8.95055 13.856C8.35141 13.5992 7.68395 13.5486 7.05294 13.7121C6.42193 13.8757 5.86309 14.2442 5.46415 14.7597C5.06521 15.2752 4.84875 15.9087 4.84875 16.5605C4.84875 17.2124 5.06521 17.8458 5.46415 18.3613C5.86309 18.8769 6.42193 19.2453 7.05294 19.4089C7.68395 19.5724 8.35141 19.5218 8.95055 19.265C9.54969 19.0082 10.0466 18.5597 10.3633 17.9899M10.3633 15.1311C10.5987 15.5548 10.7334 16.0413 10.7334 16.5605C10.7334 17.0797 10.5987 17.5675 10.3633 17.9899M10.3633 15.1311L22.8735 8.18157M10.3633 17.9899L22.8735 24.9395M22.8735 8.18157C23.0569 8.52701 23.3073 8.83241 23.6102 9.07992C23.913 9.32744 24.2621 9.5121 24.6372 9.62311C25.0122 9.73411 25.4056 9.76924 25.7943 9.72644C26.1831 9.68364 26.5594 9.56376 26.9013 9.37382C27.2432 9.18388 27.5438 8.92769 27.7856 8.62022C28.0273 8.31275 28.2053 7.96017 28.3092 7.58311C28.413 7.20604 28.4407 6.81205 28.3905 6.42417C28.3404 6.03629 28.2134 5.6623 28.017 5.32407C27.63 4.65755 26.9969 4.16948 26.2538 3.96478C25.5108 3.76008 24.7171 3.8551 24.0433 4.2294C23.3696 4.6037 22.8696 5.22741 22.6508 5.96644C22.4321 6.70548 22.512 7.50085 22.8735 8.18157ZM22.8735 24.9395C22.6858 25.2774 22.5664 25.6489 22.5223 26.0329C22.4782 26.4169 22.5102 26.8059 22.6164 27.1775C22.7226 27.5492 22.9009 27.8963 23.1413 28.1991C23.3816 28.5018 23.6792 28.7542 24.0171 28.9419C24.355 29.1296 24.7266 29.249 25.1106 29.2931C25.4946 29.3372 25.8836 29.3052 26.2552 29.199C26.6269 29.0928 26.974 28.9145 27.2767 28.6741C27.5794 28.4338 27.8319 28.1362 28.0196 27.7983C28.3987 27.1159 28.4912 26.3108 28.2767 25.5602C28.0622 24.8096 27.5584 24.1749 26.8759 23.7958C26.1935 23.4167 25.3885 23.3242 24.6378 23.5387C23.8872 23.7532 23.2526 24.257 22.8735 24.9395Z" stroke="#3A4980" stroke-width="2.354" stroke-linecap="round" stroke-linejoin="round"/>
</svg>
