<svg width="27" height="26" viewBox="0 0 27 26" fill="none" xmlns="http://www.w3.org/2000/svg">
<path d="M12.9901 4.30819C13.0344 4.20025 13.1097 4.10791 13.2066 4.04292C13.3035 3.97794 13.4175 3.94324 13.5342 3.94324C13.6508 3.94324 13.7648 3.97794 13.8617 4.04292C13.9586 4.10791 14.034 4.20025 14.0782 4.30819L16.3014 9.65544C16.343 9.75549 16.4115 9.84213 16.4991 9.90581C16.5868 9.96949 16.6904 10.0078 16.7984 10.0164L22.5715 10.4788C23.0935 10.5207 23.3049 11.1725 22.9073 11.5125L18.509 15.281C18.4268 15.3513 18.3656 15.4428 18.332 15.5456C18.2984 15.6484 18.2937 15.7585 18.3186 15.8637L19.6629 21.4976C19.69 21.6107 19.6829 21.7292 19.6426 21.8382C19.6023 21.9472 19.5306 22.0418 19.4366 22.1101C19.3425 22.1784 19.2304 22.2173 19.1142 22.2219C18.9981 22.2265 18.8832 22.1965 18.7841 22.1358L13.8407 19.1175C13.7484 19.0612 13.6423 19.0314 13.5342 19.0314C13.426 19.0314 13.32 19.0612 13.2276 19.1175L8.28422 22.1369C8.18509 22.1976 8.07022 22.2275 7.95409 22.2229C7.83796 22.2183 7.7258 22.1795 7.63176 22.1112C7.53772 22.0429 7.46603 21.9482 7.42574 21.8392C7.38545 21.7302 7.37837 21.6117 7.40539 21.4987L8.74979 15.8637C8.77472 15.7585 8.77014 15.6484 8.73654 15.5456C8.70295 15.4428 8.64164 15.3512 8.55937 15.281L4.16105 11.5125C4.07297 11.4367 4.00925 11.3367 3.97791 11.2248C3.94656 11.113 3.94899 10.9943 3.98488 10.8839C4.02077 10.7734 4.08853 10.676 4.17963 10.6039C4.27074 10.5318 4.38111 10.4883 4.49689 10.4788L10.27 10.0164C10.378 10.0078 10.4815 9.96949 10.5692 9.90581C10.6569 9.84213 10.7253 9.75549 10.7669 9.65544L12.9901 4.30819Z" stroke="#D48D3B" stroke-width="2.354" stroke-linecap="round" stroke-linejoin="round"/>
</svg>
