<svg width="34" height="34" viewBox="0 0 34 34" fill="none" xmlns="http://www.w3.org/2000/svg">
<path d="M21.7356 14.7757V8.59641C21.7356 7.2307 21.1931 5.92094 20.2274 4.95524C19.2617 3.98954 17.9519 3.44702 16.5862 3.44702C15.2205 3.44702 13.9108 3.98954 12.9451 4.95524C11.9794 5.92094 11.4369 7.2307 11.4369 8.59641V14.7757M27.0306 12.0389L28.7649 28.517C28.861 29.4301 28.1469 30.2238 27.2283 30.2238H5.94418C5.7275 30.224 5.5132 30.1787 5.31519 30.0907C5.11719 30.0027 4.93991 29.8741 4.79487 29.7131C4.64982 29.5521 4.54027 29.3624 4.47331 29.1564C4.40636 28.9503 4.3835 28.7324 4.40623 28.517L6.14191 12.0389C6.18195 11.6593 6.3611 11.308 6.64484 11.0527C6.92857 10.7973 7.29678 10.6561 7.67849 10.6562H25.494C26.2849 10.6562 26.9482 11.2535 27.0306 12.0389ZM11.9518 14.7757C11.9518 14.9122 11.8975 15.0432 11.801 15.1398C11.7044 15.2364 11.5734 15.2906 11.4369 15.2906C11.3003 15.2906 11.1693 15.2364 11.0727 15.1398C10.9762 15.0432 10.9219 14.9122 10.9219 14.7757C10.9219 14.6391 10.9762 14.5081 11.0727 14.4115C11.1693 14.315 11.3003 14.2607 11.4369 14.2607C11.5734 14.2607 11.7044 14.315 11.801 14.4115C11.8975 14.5081 11.9518 14.6391 11.9518 14.7757ZM22.2506 14.7757C22.2506 14.9122 22.1963 15.0432 22.0997 15.1398C22.0032 15.2364 21.8722 15.2906 21.7356 15.2906C21.599 15.2906 21.4681 15.2364 21.3715 15.1398C21.2749 15.0432 21.2207 14.9122 21.2207 14.7757C21.2207 14.6391 21.2749 14.5081 21.3715 14.4115C21.4681 14.315 21.599 14.2607 21.7356 14.2607C21.8722 14.2607 22.0032 14.315 22.0997 14.4115C22.1963 14.5081 22.2506 14.6391 22.2506 14.7757Z" stroke="#875541" stroke-width="2.354" stroke-linecap="round" stroke-linejoin="round"/>
</svg>
