<svg width="39" height="38" viewBox="0 0 39 38" fill="none" xmlns="http://www.w3.org/2000/svg">
<path d="M25.3392 16.7709V9.70886C25.3392 8.14806 24.7191 6.65119 23.6155 5.54753C22.5118 4.44388 21.015 3.82385 19.4542 3.82385C17.8934 3.82385 16.3965 4.44388 15.2928 5.54753C14.1892 6.65119 13.5692 8.14806 13.5692 9.70886V16.7709M31.3905 13.6432L33.3726 32.4752C33.4825 33.5188 32.6664 34.4259 31.6165 34.4259H7.29181C7.04418 34.4262 6.79926 34.3743 6.57297 34.2738C6.34668 34.1732 6.14407 34.0262 5.97831 33.8422C5.81255 33.6583 5.68734 33.4415 5.61082 33.206C5.5343 32.9705 5.50818 32.7215 5.53415 32.4752L7.51779 13.6432C7.56355 13.2094 7.7683 12.8078 8.09256 12.516C8.41683 12.2242 8.83765 12.0628 9.27388 12.0629H29.6344C30.5384 12.0629 31.2964 12.7455 31.3905 13.6432ZM14.1577 16.7709C14.1577 16.927 14.0957 17.0766 13.9853 17.187C13.8749 17.2974 13.7252 17.3594 13.5692 17.3594C13.4131 17.3594 13.2634 17.2974 13.153 17.187C13.0427 17.0766 12.9807 16.927 12.9807 16.7709C12.9807 16.6148 13.0427 16.4651 13.153 16.3547C13.2634 16.2444 13.4131 16.1824 13.5692 16.1824C13.7252 16.1824 13.8749 16.2444 13.9853 16.3547C14.0957 16.4651 14.1577 16.6148 14.1577 16.7709ZM25.9277 16.7709C25.9277 16.927 25.8657 17.0766 25.7553 17.187C25.6449 17.2974 25.4953 17.3594 25.3392 17.3594C25.1831 17.3594 25.0334 17.2974 24.923 17.187C24.8127 17.0766 24.7507 16.927 24.7507 16.7709C24.7507 16.6148 24.8127 16.4651 24.923 16.3547C25.0334 16.2444 25.1831 16.1824 25.3392 16.1824C25.4953 16.1824 25.6449 16.2444 25.7553 16.3547C25.8657 16.4651 25.9277 16.6148 25.9277 16.7709Z" stroke="#D75951" stroke-width="2.354" stroke-linecap="round" stroke-linejoin="round"/>
</svg>
