<svg width="26" height="26" viewBox="0 0 26 26" fill="none" xmlns="http://www.w3.org/2000/svg">
<path d="M9.31665 10.8481C9.31665 10.9522 9.27532 11.052 9.20174 11.1255C9.12816 11.1991 9.02837 11.2405 8.92432 11.2405C8.82026 11.2405 8.72047 11.1991 8.64689 11.1255C8.57332 11.052 8.53198 10.9522 8.53198 10.8481C8.53198 10.7441 8.57332 10.6443 8.64689 10.5707C8.72047 10.4971 8.82026 10.4558 8.92432 10.4558C9.02837 10.4558 9.12816 10.4971 9.20174 10.5707C9.27532 10.6443 9.31665 10.7441 9.31665 10.8481ZM9.31665 10.8481H8.92432M13.24 10.8481C13.24 10.9522 13.1987 11.052 13.1251 11.1255C13.0515 11.1991 12.9517 11.2405 12.8477 11.2405C12.7436 11.2405 12.6438 11.1991 12.5702 11.1255C12.4967 11.052 12.4553 10.9522 12.4553 10.8481C12.4553 10.7441 12.4967 10.6443 12.5702 10.5707C12.6438 10.4971 12.7436 10.4558 12.8477 10.4558C12.9517 10.4558 13.0515 10.4971 13.1251 10.5707C13.1987 10.6443 13.24 10.7441 13.24 10.8481ZM13.24 10.8481H12.8477M17.1633 10.8481C17.1633 10.9522 17.122 11.052 17.0484 11.1255C16.9748 11.1991 16.8751 11.2405 16.771 11.2405C16.6669 11.2405 16.5672 11.1991 16.4936 11.1255C16.42 11.052 16.3787 10.9522 16.3787 10.8481C16.3787 10.7441 16.42 10.6443 16.4936 10.5707C16.5672 10.4971 16.6669 10.4558 16.771 10.4558C16.8751 10.4558 16.9748 10.4971 17.0484 10.5707C17.122 10.6443 17.1633 10.7441 17.1633 10.8481ZM17.1633 10.8481H16.771M2.64697 13.9973C2.64697 15.6712 3.82188 17.1296 5.4791 17.3734C6.61635 17.5408 7.7651 17.6695 8.92432 17.7595V22.6181L13.3017 18.2418C13.5185 18.0259 13.8099 17.9015 14.1157 17.8944C16.1575 17.8442 18.1944 17.6702 20.2152 17.3734C21.8734 17.1296 23.0483 15.6723 23.0483 13.9962V7.70003C23.0483 6.02398 21.8734 4.56659 20.2162 4.32282C17.7764 3.96471 15.3136 3.78533 12.8477 3.7861C10.3451 3.7861 7.88437 3.96919 5.4791 4.32282C3.82188 4.56659 2.64697 6.02502 2.64697 7.70003V13.9962V13.9973Z" stroke="#3A4980" stroke-width="2.354" stroke-linecap="round" stroke-linejoin="round"/>
</svg>
