<svg width="23" height="24" viewBox="0 0 23 24" fill="none" xmlns="http://www.w3.org/2000/svg">
<path d="M7.41933 19.6789H15.3054C16.374 19.6789 16.8959 19.1488 16.8959 17.9891V11.9088C16.8959 10.8651 16.4651 10.3267 15.5788 10.2355V8.14804C15.5788 5.02509 13.5327 3.51746 11.3624 3.51746C9.19204 3.51746 7.14596 5.02509 7.14596 8.14804V10.2769C6.33416 10.4012 5.82886 10.9314 5.82886 11.9088V17.9891C5.82886 19.1488 6.35073 19.6789 7.41933 19.6789ZM8.47964 7.97408C8.47964 5.89488 9.81331 4.79314 11.3624 4.79314C12.9114 4.79314 14.2451 5.89488 14.2451 7.97408V10.2272L8.47964 10.2355V7.97408Z" fill="#9E9E9E"/>
</svg>
