<svg width="24" height="24" viewBox="0 0 24 24" fill="none" xmlns="http://www.w3.org/2000/svg">
<path d="M11.6457 11.456C11.8528 11.456 12.0102 11.3897 12.1261 11.2655L15.539 7.83604C15.6881 7.69521 15.7461 7.52954 15.7461 7.33902C15.7461 7.15677 15.6716 6.97453 15.539 6.84199L12.1261 3.37941C12.0102 3.24687 11.8445 3.1806 11.6457 3.1806C11.2729 3.1806 10.9913 3.47882 10.9913 3.85987C10.9913 4.03382 11.0575 4.1995 11.1735 4.33204L13.3853 6.50236C12.9131 6.41953 12.4326 6.36982 11.9522 6.36982C7.89317 6.36982 4.62939 9.62531 4.62939 13.6843C4.62939 17.7516 7.89317 21.0154 11.9522 21.0154C16.0112 21.0154 19.2667 17.7516 19.2667 13.6843C19.2667 13.2867 18.985 12.9968 18.5791 12.9968C18.1898 12.9968 17.933 13.2867 17.933 13.6843C17.933 17.0144 15.2739 19.6817 11.9522 19.6817C8.63042 19.6817 5.96307 17.0144 5.96307 13.6843C5.96307 10.3626 8.63042 7.7035 11.9522 7.7035C12.5817 7.7035 13.1616 7.7532 13.6586 7.86089L11.1818 10.3211C11.0575 10.4537 10.9913 10.6194 10.9913 10.7933C10.9913 11.1744 11.2729 11.456 11.6457 11.456Z" fill="#797979"/>
</svg>
